#!OML:ASF F:\VICON\USERDATA\INSTALL\rory3\rory3.ASF
:FULLY-SPECIFIED
:DEGREES
3986
root -8.6083 17.495 -11.962 3.1675 -29.9155 -722.475
lowerback 28.0596 0.167276 3.48648
upperback 4.99316 1.84593 6.99679
thorax -10.0767 0.784168 5.28622
lowerneck -10.7842 6.10188 0.863825
upperneck 14.3498 9.78598 -10.1881
head 6.72776 3.95057 -2.49625
rclavicle 3.33958e-014 2.70347e-014
rhumerus -14.8964 0.573598 -85.205
rradius 61.2427
rwrist 7.70575
rhand -20.7324 10.2643
rfingers 7.12502
rthumb 5.63275 -19.6408
lclavicle 3.33958e-014 2.70347e-014
lhumerus -26.8741 -7.16015 92.6409
lradius 47.2714
lwrist -11.5569
lhand 169.918 -130.26
lfingers 7.12502
lthumb -164.095 3859.11
rfemur -12.0058 1.71569 24.136
rtibia 38.9856
rfoot -23.9028 1.07172
rtoes 9.62581
lfemur -32.2987 -0.614734 -11.6469
ltibia 53.4203
lfoot -7.4371 8.31989
ltoes -9.06804
3987
root -8.61313 17.5005 -11.9163 3.28114 -30.0507 -722.663
lowerback 28.0563 0.215674 3.4426
upperback 4.85182 1.93365 7.21529
thorax -10.2545 0.832643 5.53971
lowerneck -10.2756 6.10947 0.694124
upperneck 14.1445 9.81826 -10.3739
head 6.57761 3.96836 -2.54049
rclavicle -8.98507e-014 3.49861e-014
rhumerus -15.3962 0.667192 -84.5591
rradius 63.4634
rwrist 7.66927
rhand -20.7539 9.10206
rfingers 7.12502
rthumb 5.612 -20.8036
lclavicle -8.98507e-014 3.49861e-014
lhumerus -27.6115 -6.29037 92.2167
lradius 48.1693
lwrist -8.12547
lhand 170.923 -129.312
lfingers 7.12502
lthumb -163.127 3859.98
rfemur -11.8801 1.87037 24.2226
rtibia 38.9314
rfoot -23.8295 1.25584
rtoes 10.2801
lfemur -32.412 -0.396356 -11.4964
ltibia 53.5865
lfoot -7.62897 7.80985
ltoes -10.8744
3988
root -8.61824 17.5051 -11.857 3.26697 -30.1293 -722.683
lowerback 27.8299 0.179544 3.44748
upperback 4.89978 1.87186 7.2769
thorax -10.0814 0.803559 5.62324
lowerneck -10.1579 6.18087 0.632996
upperneck 13.9193 9.90676 -10.4217
head 6.49053 4.01888 -2.54148
rclavicle 3.18055e-015 7.95139e-015
rhumerus -15.7806 0.713056 -83.9685
rradius 65.6741
rwrist 8.10223
rhand -20.5848 8.92994
rfingers 7.12502
rthumb 5.77527 -20.9714
lclavicle 3.18055e-015 7.95139e-015
lhumerus -28.2626 -5.90474 91.7979
lradius 48.4364
lwrist -7.64501
lhand 170.525 -129.685
lfingers 7.12502
lthumb -163.511 3859.63
rfemur -11.6115 1.73431 24.1199
rtibia 38.8415
rfoot -23.7955 1.3753
rtoes 9.70834
lfemur -32.4215 -0.275591 -11.5117
ltibia 53.7313
lfoot -7.92412 7.22926
ltoes -12.7232
3989
root -8.61954 17.5139 -11.8014 3.21311 -30.0246 -722.444
lowerback 27.6288 0.121099 3.37934
upperback 4.84037 1.76656 7.24442
thorax -10.0397 0.758468 5.65988
lowerneck -9.97435 6.19262 0.510987
upperneck 13.7267 9.91376 -10.4084
head 6.39122 4.03245 -2.52345
rclavicle 7.95139e-015 -7.95139e-015
rhumerus -16.3261 0.318967 -83.3201
rradius 67.9652
rwrist 8.72397
rhand -19.6825 9.43666
rfingers 7.12502
rthumb 6.64629 -20.439
lclavicle 7.95139e-015 -7.95139e-015
lhumerus -28.9798 -5.3746 91.3292
lradius 48.7054
lwrist -7.17814
lhand 165.867 -130.066
lfingers 7.12502
lthumb -167.999 3859.57
rfemur -11.4354 1.49615 23.7587
rtibia 38.7325
rfoot -23.658 1.39098
rtoes 8.95465
lfemur -32.544 -0.246518 -11.7929
ltibia 53.8303
lfoot -8.14757 6.69039
ltoes -14.4004
3990
root -8.62242 17.5177 -11.7608 3.16643 -29.8265 -722.348
lowerback 27.5755 0.0695434 3.35212
upperback 4.77005 1.69862 7.25369
thorax -10.089 0.73016 5.71228
lowerneck -9.75379 6.1381 0.370104
upperneck 13.6072 9.8318 -10.3542
head 6.30041 4.00284 -2.49895
rclavicle 1.66979e-014 1.43125e-014
rhumerus -16.7908 -0.378044 -82.6998
rradius 70.2842
rwrist 9.97325
rhand -18.4737 9.10964
rfingers 7.12502
rthumb 7.81318 -20.726
lclavicle 1.66979e-014 1.43125e-014
lhumerus -29.6869 -4.99502 90.8215
lradius 48.9889
lwrist -6.29239
lhand 166.917 -130.084
lfingers 7.12502
lthumb -166.987 3859.49
rfemur -11.2275 1.37889 23.6202
rtibia 38.5977
rfoot -23.5157 1.29622
rtoes 9.04539
lfemur -32.6592 -0.212361 -11.8957
ltibia 53.8812
lfoot -8.37824 6.0441
ltoes -15.3772
3991
root -8.6221 17.5233 -11.6924 3.26796 -29.8241 -722.545
lowerback 27.2413 0.0202425 3.64922
upperback 4.81581 1.6942 7.3165
thorax -9.8583 0.717549 5.60154
lowerneck -9.70156 6.09043 0.284275
upperneck 13.5359 9.77712 -10.3966
head 6.26415 3.97391 -2.50572
rclavicle -3.97569e-015 -5.40694e-014
rhumerus -17.2201 -0.987414 -81.9545
rradius 72.6053
rwrist 11.5832
rhand -17.2427 8.1991
rfingers 7.12502
rthumb 9.00113 -21.5889
lclavicle -3.97569e-015 -5.40694e-014
lhumerus -30.256 -4.75827 90.4032
lradius 49.1468
lwrist -5.23525
lhand 170.333 -128.788
lfingers 7.12502
lthumb -163.695 3860.55
rfemur -10.9343 1.33918 23.6724
rtibia 38.4423
rfoot -23.3653 1.28259
rtoes 8.15442
lfemur -32.7139 -0.138312 -11.7554
ltibia 53.8904
lfoot -8.48457 5.57418
ltoes -15.8347
3992
root -8.62523 17.5327 -11.6339 3.26783 -29.8447 -722.675
lowerback 27.0902 -0.0220596 3.79755
upperback 4.86 1.66428 7.32469
thorax -9.72383 0.697629 5.52894
lowerneck -9.56623 6.0944 0.37177
upperneck 13.4383 9.76693 -10.4777
head 6.21736 3.97658 -2.55064
rclavicle 8.50798e-014 -4.77083e-014
rhumerus -17.7306 -1.5454 -81.3121
rradius 74.9638
rwrist 12.2446
rhand -15.4416 7.47903
rfingers 7.12502
rthumb 10.7388 -22.2265
lclavicle 8.50798e-014 -4.77083e-014
lhumerus -30.7866 -4.55731 89.8371
lradius 49.2684
lwrist -3.95815
lhand 168.324 -127.712
lfingers 7.12502
lthumb -165.631 3861.77
rfemur -10.5474 1.37139 23.6699
rtibia 38.2807
rfoot -23.2286 1.44457
rtoes 8.10389
lfemur -32.6954 -0.108215 -11.6275
ltibia 53.853
lfoot -8.66808 5.24081
ltoes -14.8675
3993
root -8.62439 17.5357 -11.5909 3.22614 -29.6075 -722.748
lowerback 27.3515 -0.00230693 3.8962
upperback 4.7659 1.75283 7.34418
thorax -9.96963 0.737924 5.47391
lowerneck -9.77436 6.01018 0.707644
upperneck 13.7608 9.65701 -10.5698
head 6.36924 3.91138 -2.63639
rclavicle 7.63333e-014 1.74931e-014
rhumerus -18.5393 -2.56286 -80.4596
rradius 77.3859
rwrist 12.5055
rhand -15.2746 6.62974
rfingers 7.12502
rthumb 10.8999 -23.0674
lclavicle 7.63333e-014 1.74931e-014
lhumerus -31.3541 -4.74788 89.4345
lradius 48.7918
lwrist -4.12999
lhand 166.224 -129.111
lfingers 7.12502
lthumb -167.655 3860.51
rfemur -10.2596 1.25281 23.7197
rtibia 38.1204
rfoot -23.1077 1.12958
rtoes 7.29513
lfemur -32.8064 -0.168856 -11.5434
ltibia 53.8302
lfoot -8.7405 4.94435
ltoes -13.8814
3994
root -8.62678 17.5327 -11.5429 3.23732 -29.1629 -722.915
lowerback 27.6573 0.0866069 4.16063
upperback 4.68288 1.98411 7.37724
thorax -10.2304 0.83868 5.28662
lowerneck -10.6267 5.75757 1.3067
upperneck 14.5976 9.33289 -10.5996
head 6.79313 3.7178 -2.7491
rclavicle 3.97569e-015 -6.36111e-015
rhumerus -19.3147 -4.41948 -79.358
rradius 79.4425
rwrist 13.2504
rhand -15.0096 6.88527
rfingers 7.12502
rthumb 11.1555 -22.7982
lclavicle 3.97569e-015 -6.36111e-015
lhumerus -31.8096 -5.15534 89.1528
lradius 48.8069
lwrist -3.43673
lhand 164.793 -129.988
lfingers 7.12502
lthumb -169.034 3859.71
rfemur -10.0452 0.896003 23.9036
rtibia 38.0155
rfoot -22.9197 0.659406
rtoes 6.03911
lfemur -32.9781 -0.158128 -11.3834
ltibia 53.7911
lfoot -8.56948 4.3777
ltoes -13.9429
3995
root -8.6364 17.5318 -11.4841 3.29086 -28.9601 -723.137
lowerback 27.6137 -0.104514 4.13275
upperback 4.49453 1.76781 7.56169
thorax -10.4184 0.745518 5.60345
lowerneck -9.80411 5.75859 1.15848
upperneck 14.6445 9.33176 -10.559
head 6.65384 3.73673 -2.73447
rclavicle 4.21423e-014 7.31528e-014
rhumerus -20.3136 -4.76539 -78.3632
rradius 81.4429
rwrist 13.3996
rhand -15.2259 6.53787
rfingers 7.12502
rthumb 10.9469 -23.1568
lclavicle 4.21423e-014 7.31528e-014
lhumerus -32.9296 -3.92262 88.5623
lradius 49.2251
lwrist -2.01428
lhand 163.807 -130.968
lfingers 7.12502
lthumb -169.986 3858.77
rfemur -9.79125 0.911425 24.1225
rtibia 37.9321
rfoot -22.8106 0.11983
rtoes 4.82802
lfemur -33.091 0.0742669 -11.1652
ltibia 53.7129
lfoot -8.48999 3.85947
ltoes -13.9468
3996
root -8.64494 17.535 -11.4143 3.16257 -28.9004 -722.97
lowerback 27.2423 -0.132363 4.20301
upperback 4.68225 1.67575 7.34171
thorax -9.99464 0.694291 5.31975
lowerneck -10.0088 5.75773 1.34332
upperneck 14.6669 9.2767 -10.3653
head 6.69091 3.72857 -2.70223
rclavicle -8.5875e-014 -3.65764e-014
rhumerus -20.9506 -5.83111 -77.7479
rradius 83.7457
rwrist 12.6182
rhand -15.7623 5.64851
rfingers 7.12502
rthumb 10.4295 -24.0728
lclavicle -8.5875e-014 -3.65764e-014
lhumerus -33.0488 -3.63333 87.6896
lradius 49.2942
lwrist -0.654488
lhand 164.98 -130.305
lfingers 7.12502
lthumb -168.855 3859.38
rfemur -9.47092 0.993065 23.8882
rtibia 37.8787
rfoot -22.8291 -0.0522628
rtoes 4.77712
lfemur -33.0529 0.380431 -11.3738
ltibia 53.506
lfoot -8.56318 3.62505
ltoes -14.0447
3997
root -8.65244 17.5472 -11.3461 3.06234 -28.8417 -722.867
lowerback 26.9997 -0.210403 4.17034
upperback 4.79826 1.52076 7.22963
thorax -9.72403 0.620199 5.2516
lowerneck -10.0254 5.86044 1.46545
upperneck 14.6574 9.41237 -10.4542
head 6.70964 3.79332 -2.73643
rclavicle -1.51076e-014 6.36111e-015
rhumerus -21.6272 -6.69255 -77.0188
rradius 86.0168
rwrist 11.5061
rhand -15.7415 4.74088
rfingers 7.12502
rthumb 10.4495 -24.9794
lclavicle -1.51076e-014 6.36111e-015
lhumerus -33.3745 -3.15792 87.0378
lradius 49.1363
lwrist 0.555063
lhand 169.844 -126.673
lfingers 7.12502
lthumb -164.167 3862.7
rfemur -9.08405 1.08237 23.7072
rtibia 37.7579
rfoot -22.8738 -0.133738
rtoes 5.538
lfemur -32.9675 0.589953 -11.5152
ltibia 53.2228
lfoot -8.45917 3.58943
ltoes -11.2411
3998
root -8.65942 17.5584 -11.2866 3.04408 -28.4886 -722.694
lowerback 27.0102 -0.318943 3.90247
upperback 4.64366 1.33068 7.26833
thorax -9.9016 0.544631 5.52605
lowerneck -9.81023 5.8711 1.27495
upperneck 14.6537 9.43454 -10.3577
head 6.65839 3.80805 -2.67866
rclavicle 1.11319e-014 -6.36111e-014
rhumerus -22.4222 -7.49151 -76.0724
rradius 87.8593
rwrist 10.3116
rhand -15.9876 4.15843
rfingers 7.12502
rthumb 10.2122 -25.5737
lclavicle 1.11319e-014 -6.36111e-014
lhumerus -34.0866 -2.64013 86.5801
lradius 49.1019
lwrist 1.49954
lhand 165.791 -128.418
lfingers 7.12502
lthumb -168.073 3861.22
rfemur -8.88446 0.931244 23.5195
rtibia 37.6507
rfoot -22.7358 -0.404022
rtoes 5.02667
lfemur -33.1049 0.575112 -11.6795
ltibia 52.8513
lfoot -8.27025 3.29704
ltoes -14.7711
3999
root -8.66899 17.5643 -11.2309 3.19271 -27.9019 -722.856
lowerback 27.2026 -0.469845 3.79574
upperback 4.30679 1.19192 7.55301
thorax -10.3876 0.496929 5.99251
lowerneck -9.50684 5.74651 0.68693
upperneck 14.8992 9.31434 -10.0304
head 6.63314 3.74133 -2.49933
rclavicle -2.22639e-014 -4.45278e-014
rhumerus -23.7784 -7.6428 -74.702
rradius 89.8062
rwrist 8.73091
rhand -16.3247 3.80024
rfingers 7.12502
rthumb 9.8869 -25.9476
lclavicle -2.22639e-014 -4.45278e-014
lhumerus -35.1867 -1.94464 86.342
lradius 49.123
lwrist 1.77936
lhand 164.796 -129.226
lfingers 7.12502
lthumb -169.032 3860.47
rfemur -8.65777 0.993051 23.7907
rtibia 37.5009
rfoot -22.6316 -1.09458
rtoes 4.72978
lfemur -33.3898 0.514261 -11.4822
ltibia 52.4617
lfoot -7.81615 3.22803
ltoes -14.0486
4000
root -8.68011 17.5663 -11.175 3.18587 -27.405 -722.902
lowerback 27.2825 -0.430114 3.78774
upperback 4.27191 1.26225 7.62117
thorax -10.477 0.53361 6.05636
lowerneck -9.54596 5.42656 0.669455
upperneck 14.6079 8.85652 -10.0586
head 6.5209 3.52987 -2.5487
rclavicle 8.74653e-014 -2.54444e-014
rhumerus -25.0404 -8.64426 -73.4449
rradius 91.8806
rwrist 7.2318
rhand -16.636 3.09112
rfingers 7.12502
rthumb 9.58655 -26.6708
lclavicle 8.74653e-014 -2.54444e-014
lhumerus -35.519 -1.7512 85.9685
lradius 48.9106
lwrist 1.85554
lhand 165.409 -129.363
lfingers 7.12502
lthumb -168.441 3860.3
rfemur -8.30745 1.19739 23.9493
rtibia 37.3976
rfoot -22.5779 -1.54175
rtoes 5.69186
lfemur -33.511 0.521541 -11.3822
ltibia 51.9978
lfoot -7.54023 3.24064
ltoes -13.9944
